{
  "accessors": [
    {
      "bufferView": 2,
      "componentType": 5126,
      "count": 2105,
      "max": [
        -4.595221996307373,
        6.4882040023803711,
        3.286945104598999
      ],
      "min": [
        -9.4217157363891602,
        3.9130880832672119,
        0.61214697360992432
      ],
      "type": "VEC3"
    },
    {
      "bufferView": 2,
      "byteOffset": 25260,
      "componentType": 5126,
      "count": 2105,
      "max": [
        1,
        1,
        1
      ],
      "min": [
        -1,
        -1,
        -1
      ],
      "type": "VEC3"
    },
    {
      "bufferView": 3,
      "componentType": 5126,
      "count": 2105,
      "max": [
        0.99999934434890747,
        0.99999988079071045,
        0.99997961521148682,
        1
      ],
      "min": [
        -0.9999772310256958,
        -0.99999988079071045,
        -0.99995911121368408,
        -1
      ],
      "type": "VEC4"
    },
    {
      "bufferView": 1,
      "componentType": 5126,
      "count": 2105,
      "max": [
        0.99319702386856079,
        0.94375401735305786
      ],
      "min": [
        0.022786000743508339,
        0.06313999742269516
      ],
      "type": "VEC2"
    },
    {
      "bufferView": 0,
      "componentType": 5125,
      "count": 4536,
      "max": [
        2104
      ],
      "min": [
        0
      ],
      "type": "SCALAR"
    },
    {
      "bufferView": 2,
      "byteOffset": 50520,
      "componentType": 5126,
      "count": 236,
      "max": [
        -4.5019450187683105,
        6.5895519256591797,
        3.353147029876709
      ],
      "min": [
        -9.9128484725952148,
        4.0362858772277832,
        3.2867610454559326
      ],
      "type": "VEC3"
    },
    {
      "bufferView": 2,
      "byteOffset": 53352,
      "componentType": 5126,
      "count": 236,
      "max": [
        1,
        1,
        1
      ],
      "min": [
        -1,
        -1,
        -1
      ],
      "type": "VEC3"
    },
    {
      "bufferView": 3,
      "byteOffset": 33680,
      "componentType": 5126,
      "count": 236,
      "max": [
        1,
        1,
        0.00013518550258595496,
        1
      ],
      "min": [
        -1,
        -1,
        -4.6300545363919809e-05,
        1
      ],
      "type": "VEC4"
    },
    {
      "bufferView": 1,
      "byteOffset": 16840,
      "componentType": 5126,
      "count": 236,
      "max": [
        0.98729401826858521,
        0.94964402914047241
      ],
      "min": [
        0.020822999998927116,
        0.066496998071670532
      ],
      "type": "VEC2"
    },
    {
      "bufferView": 0,
      "byteOffset": 18144,
      "componentType": 5125,
      "count": 492,
      "max": [
        235
      ],
      "min": [
        0
      ],
      "type": "SCALAR"
    },
    {
      "bufferView": 2,
      "byteOffset": 56184,
      "componentType": 5126,
      "count": 1326,
      "max": [
        -5.7405891418457031,
        5.0087680816650391,
        3.5288100242614746
      ],
      "min": [
        -6.1107158660888672,
        4.5082550048828125,
        3.3541090488433838
      ],
      "type": "VEC3"
    },
    {
      "bufferView": 2,
      "byteOffset": 72096,
      "componentType": 5126,
      "count": 1326,
      "max": [
        0.99961787462234497,
        0.96179187297821045,
        1
      ],
      "min": [
        -0.98622161149978638,
        -0.99549347162246704,
        -1
      ],
      "type": "VEC3"
    },
    {
      "bufferView": 3,
      "byteOffset": 37456,
      "componentType": 5126,
      "count": 1326,
      "max": [
        0.9621121883392334,
        0.99651104211807251,
        0.99645751714706421,
        1
      ],
      "min": [
        -0.99873930215835571,
        -0.98694634437561035,
        -0.99840807914733887,
        -1
      ],
      "type": "VEC4"
    },
    {
      "bufferView": 1,
      "byteOffset": 18728,
      "componentType": 5126,
      "count": 1326,
      "max": [
        0.98767000436782837,
        0.98982197046279907
      ],
      "min": [
        0.026455000042915344,
        0.016440000385046005
      ],
      "type": "VEC2"
    },
    {
      "bufferView": 0,
      "byteOffset": 20112,
      "componentType": 5125,
      "count": 6408,
      "max": [
        1325
      ],
      "min": [
        0
      ],
      "type": "SCALAR"
    },
    {
      "bufferView": 2,
      "byteOffset": 88008,
      "componentType": 5126,
      "count": 2758,
      "max": [
        -4.8168768882751465,
        6.4519767761230469,
        4.7092437744140625
      ],
      "min": [
        -9.5606632232666016,
        5.7860169410705566,
        3.353147029876709
      ],
      "type": "VEC3"
    },
    {
      "bufferView": 2,
      "byteOffset": 121104,
      "componentType": 5126,
      "count": 2758,
      "max": [
        0.99945998191833496,
        0.99915289878845215,
        1
      ],
      "min": [
        -0.99915289878845215,
        -0.99961674213409424,
        -1
      ],
      "type": "VEC3"
    },
    {
      "bufferView": 3,
      "byteOffset": 58672,
      "componentType": 5126,
      "count": 2758,
      "max": [
        0.99990665912628174,
        0.999927818775177,
        0.99908590316772461,
        1
      ],
      "min": [
        -0.99997365474700928,
        -0.99980068206787109,
        -1,
        -1
      ],
      "type": "VEC4"
    },
    {
      "bufferView": 1,
      "byteOffset": 29336,
      "componentType": 5126,
      "count": 2758,
      "max": [
        0.99508398771286011,
        0.99508398771286011
      ],
      "min": [
        0.008921000175178051,
        0.014973999932408333
      ],
      "type": "VEC2"
    },
    {
      "bufferView": 0,
      "byteOffset": 45744,
      "componentType": 5125,
      "count": 6180,
      "max": [
        2757
      ],
      "min": [
        0
      ],
      "type": "SCALAR"
    },
    {
      "bufferView": 2,
      "byteOffset": 154200,
      "componentType": 5126,
      "count": 60,
      "max": [
        -4.8652591705322266,
        6.3857078552246094,
        4.6830310821533203
      ],
      "min": [
        -9.5045452117919922,
        5.8090062141418457,
        3.5279920101165771
      ],
      "type": "VEC3"
    },
    {
      "bufferView": 2,
      "byteOffset": 154920,
      "componentType": 5126,
      "count": 60,
      "max": [
        0.35048097372055054,
        -0.92779666185379028,
        0.066262029111385345
      ],
      "min": [
        -0.36715486645698547,
        -0.99672162532806396,
        0.065608993172645569
      ],
      "type": "VEC3"
    },
    {
      "bufferView": 3,
      "byteOffset": 102800,
      "componentType": 5126,
      "count": 60,
      "max": [
        0.99883419275283813,
        0.35058808326721191,
        0.010145744308829308,
        1
      ],
      "min": [
        0.93003988265991211,
        -0.36731874942779541,
        -0.01040246058255434,
        1
      ],
      "type": "VEC4"
    },
    {
      "bufferView": 1,
      "byteOffset": 51400,
      "componentType": 5126,
      "count": 60,
      "max": [
        0.9361870288848877,
        0.97161298990249634
      ],
      "min": [
        0.022500999271869659,
        0.035422999411821365
      ],
      "type": "VEC2"
    },
    {
      "bufferView": 0,
      "byteOffset": 70464,
      "componentType": 5125,
      "count": 168,
      "max": [
        59
      ],
      "min": [
        0
      ],
      "type": "SCALAR"
    },
    {
      "bufferView": 2,
      "byteOffset": 155640,
      "componentType": 5126,
      "count": 10032,
      "max": [
        -6.6952619552612305,
        5.2708849906921387,
        3.5263440608978271
      ],
      "min": [
        -7.9843988418579102,
        4.7732648849487305,
        3.3544380664825439
      ],
      "type": "VEC3"
    },
    {
      "bufferView": 2,
      "byteOffset": 276024,
      "componentType": 5126,
      "count": 10032,
      "max": [
        1,
        1,
        0.99655532836914062
      ],
      "min": [
        -1,
        -1,
        -1
      ],
      "type": "VEC3"
    },
    {
      "bufferView": 3,
      "byteOffset": 103760,
      "componentType": 5126,
      "count": 10032,
      "max": [
        1,
        0.99887943267822266,
        0.99990636110305786,
        1
      ],
      "min": [
        -0.99999988079071045,
        -0.99659562110900879,
        -0.99990636110305786,
        1
      ],
      "type": "VEC4"
    },
    {
      "bufferView": 1,
      "byteOffset": 51880,
      "componentType": 5126,
      "count": 10032,
      "max": [
        0.99065601825714111,
        0.98147499561309814
      ],
      "min": [
        0.0085330000147223473,
        0.011900999583303928
      ],
      "type": "VEC2"
    },
    {
      "bufferView": 0,
      "byteOffset": 71136,
      "componentType": 5125,
      "count": 15120,
      "max": [
        10031
      ],
      "min": [
        0
      ],
      "type": "SCALAR"
    },
    {
      "bufferView": 2,
      "byteOffset": 396408,
      "componentType": 5126,
      "count": 1876,
      "max": [
        -6.8941178321838379,
        7.0064339637756348,
        2.3898649215698242
      ],
      "min": [
        -8.9168968200683594,
        4.6820459365844727,
        0.61214697360992432
      ],
      "type": "VEC3"
    },
    {
      "bufferView": 2,
      "byteOffset": 418920,
      "componentType": 5126,
      "count": 1876,
      "max": [
        1,
        1,
        1
      ],
      "min": [
        -1,
        -1,
        -1
      ],
      "type": "VEC3"
    },
    {
      "bufferView": 3,
      "byteOffset": 264272,
      "componentType": 5126,
      "count": 1876,
      "max": [
        1,
        1,
        0.99999982118606567,
        1
      ],
      "min": [
        -1,
        -0.99999916553497314,
        -0.99875348806381226,
        -1
      ],
      "type": "VEC4"
    },
    {
      "bufferView": 1,
      "byteOffset": 132136,
      "componentType": 5126,
      "count": 1876,
      "max": [
        0.99151700735092163,
        0.9763990044593811
      ],
      "min": [
        0.036892000585794449,
        0.20340700447559357
      ],
      "type": "VEC2"
    },
    {
      "bufferView": 0,
      "byteOffset": 131616,
      "componentType": 5125,
      "count": 6558,
      "max": [
        1875
      ],
      "min": [
        0
      ],
      "type": "SCALAR"
    }
  ],
  "asset": {
    "extras": {
      "author": "Cisco (https://sketchfab.com/Ciscow)",
      "license": "CC-BY-4.0 (http://creativecommons.org/licenses/by/4.0/)",
      "source": "https://sketchfab.com/3d-models/cyberpunk-desk-8bc4ca48b2e244ff8b5ba714a2ec1963",
      "title": "Cyberpunk Desk"
    },
    "generator": "Sketchfab-9.72.0",
    "version": "2.0"
  },
  "bufferViews": [
    {
      "buffer": 0,
      "byteLength": 157848,
      "byteOffset": 0,
      "name": "floatBufferViews",
      "target": 34963
    },
    {
      "buffer": 0,
      "byteLength": 147144,
      "byteOffset": 157848,
      "byteStride": 8,
      "name": "floatBufferViews",
      "target": 34962
    },
    {
      "buffer": 0,
      "byteLength": 441432,
      "byteOffset": 304992,
      "byteStride": 12,
      "name": "floatBufferViews",
      "target": 34962
    },
    {
      "buffer": 0,
      "byteLength": 294288,
      "byteOffset": 746424,
      "byteStride": 16,
      "name": "floatBufferViews",
      "target": 34962
    }
  ],
  "buffers": [
    {
      "byteLength": 1040712,
      "uri": "scene.bin"
    }
  ],
  "images": [
    {
      "uri": "textures/1041_baseColor.jpeg"
    },
    {
      "uri": "textures/1041_metallicRoughness.png"
    },
    {
      "uri": "textures/1041_emissive.jpeg"
    },
    {
      "uri": "textures/1041_normal.png"
    },
    {
      "uri": "textures/1042_baseColor.jpeg"
    },
    {
      "uri": "textures/1042_metallicRoughness.png"
    },
    {
      "uri": "textures/1042_emissive.jpeg"
    },
    {
      "uri": "textures/1042_normal.png"
    },
    {
      "uri": "textures/1043_baseColor.jpeg"
    },
    {
      "uri": "textures/1043_metallicRoughness.png"
    },
    {
      "uri": "textures/1043_emissive.jpeg"
    },
    {
      "uri": "textures/1043_normal.png"
    },
    {
      "uri": "textures/1045_baseColor.png"
    },
    {
      "uri": "textures/1045_metallicRoughness.png"
    },
    {
      "uri": "textures/1045_emissive.jpeg"
    },
    {
      "uri": "textures/1045_normal.png"
    },
    {
      "uri": "textures/1053_baseColor.jpeg"
    },
    {
      "uri": "textures/1053_metallicRoughness.png"
    },
    {
      "uri": "textures/1053_emissive.jpeg"
    },
    {
      "uri": "textures/1053_normal.png"
    },
    {
      "uri": "textures/1054_baseColor.png"
    },
    {
      "uri": "textures/1054_metallicRoughness.png"
    },
    {
      "uri": "textures/1054_emissive.jpeg"
    },
    {
      "uri": "textures/1054_normal.png"
    },
    {
      "uri": "textures/1055_baseColor.jpeg"
    },
    {
      "uri": "textures/1055_metallicRoughness.png"
    },
    {
      "uri": "textures/1055_emissive.jpeg"
    },
    {
      "uri": "textures/1055_normal.png"
    }
  ],
  "materials": [
    {
      "doubleSided": true,
      "emissiveFactor": [
        1,
        1,
        1
      ],
      "emissiveTexture": {
        "index": 2,
        "texCoord": 0
      },
      "name": "1041",
      "normalTexture": {
        "index": 3,
        "scale": 1,
        "texCoord": 0
      },
      "occlusionTexture": {
        "index": 1,
        "strength": 1,
        "texCoord": 0
      },
      "pbrMetallicRoughness": {
        "baseColorFactor": [
          1,
          1,
          1,
          1
        ],
        "baseColorTexture": {
          "index": 0,
          "texCoord": 0
        },
        "metallicFactor": 1,
        "metallicRoughnessTexture": {
          "index": 1,
          "texCoord": 0
        },
        "roughnessFactor": 1
      }
    },
    {
      "doubleSided": true,
      "emissiveFactor": [
        1,
        1,
        1
      ],
      "emissiveTexture": {
        "index": 6,
        "texCoord": 0
      },
      "name": "1042",
      "normalTexture": {
        "index": 7,
        "scale": 1,
        "texCoord": 0
      },
      "occlusionTexture": {
        "index": 5,
        "strength": 1,
        "texCoord": 0
      },
      "pbrMetallicRoughness": {
        "baseColorFactor": [
          1,
          1,
          1,
          1
        ],
        "baseColorTexture": {
          "index": 4,
          "texCoord": 0
        },
        "metallicFactor": 1,
        "metallicRoughnessTexture": {
          "index": 5,
          "texCoord": 0
        },
        "roughnessFactor": 1
      }
    },
    {
      "doubleSided": true,
      "emissiveFactor": [
        1,
        1,
        1
      ],
      "emissiveTexture": {
        "index": 10,
        "texCoord": 0
      },
      "name": "1043",
      "normalTexture": {
        "index": 11,
        "scale": 1,
        "texCoord": 0
      },
      "occlusionTexture": {
        "index": 9,
        "strength": 1,
        "texCoord": 0
      },
      "pbrMetallicRoughness": {
        "baseColorFactor": [
          1,
          1,
          1,
          1
        ],
        "baseColorTexture": {
          "index": 8,
          "texCoord": 0
        },
        "metallicFactor": 1,
        "metallicRoughnessTexture": {
          "index": 9,
          "texCoord": 0
        },
        "roughnessFactor": 1
      }
    },
    {
      "alphaMode": "BLEND",
      "doubleSided": true,
      "emissiveFactor": [
        1,
        1,
        1
      ],
      "emissiveTexture": {
        "index": 14,
        "texCoord": 0
      },
      "name": "1045",
      "normalTexture": {
        "index": 15,
        "scale": 1,
        "texCoord": 0
      },
      "occlusionTexture": {
        "index": 13,
        "strength": 1,
        "texCoord": 0
      },
      "pbrMetallicRoughness": {
        "baseColorFactor": [
          1,
          1,
          1,
          1
        ],
        "baseColorTexture": {
          "index": 12,
          "texCoord": 0
        },
        "metallicFactor": 1,
        "metallicRoughnessTexture": {
          "index": 13,
          "texCoord": 0
        },
        "roughnessFactor": 1
      }
    },
    {
      "doubleSided": true,
      "emissiveFactor": [
        1,
        1,
        1
      ],
      "emissiveTexture": {
        "index": 18,
        "texCoord": 0
      },
      "name": "1053",
      "normalTexture": {
        "index": 19,
        "scale": 1,
        "texCoord": 0
      },
      "occlusionTexture": {
        "index": 17,
        "strength": 1,
        "texCoord": 0
      },
      "pbrMetallicRoughness": {
        "baseColorFactor": [
          1,
          1,
          1,
          1
        ],
        "baseColorTexture": {
          "index": 16,
          "texCoord": 0
        },
        "metallicFactor": 1,
        "metallicRoughnessTexture": {
          "index": 17,
          "texCoord": 0
        },
        "roughnessFactor": 1
      }
    },
    {
      "alphaMode": "BLEND",
      "doubleSided": true,
      "emissiveFactor": [
        1,
        1,
        1
      ],
      "emissiveTexture": {
        "index": 22,
        "texCoord": 0
      },
      "name": "1054",
      "normalTexture": {
        "index": 23,
        "scale": 1,
        "texCoord": 0
      },
      "occlusionTexture": {
        "index": 21,
        "strength": 1,
        "texCoord": 0
      },
      "pbrMetallicRoughness": {
        "baseColorFactor": [
          1,
          1,
          1,
          1
        ],
        "baseColorTexture": {
          "index": 20,
          "texCoord": 0
        },
        "metallicFactor": 1,
        "metallicRoughnessTexture": {
          "index": 21,
          "texCoord": 0
        },
        "roughnessFactor": 1
      }
    },
    {
      "doubleSided": true,
      "emissiveFactor": [
        1,
        1,
        1
      ],
      "emissiveTexture": {
        "index": 26,
        "texCoord": 0
      },
      "name": "1055",
      "normalTexture": {
        "index": 27,
        "scale": 1,
        "texCoord": 0
      },
      "occlusionTexture": {
        "index": 25,
        "strength": 1,
        "texCoord": 0
      },
      "pbrMetallicRoughness": {
        "baseColorFactor": [
          1,
          1,
          1,
          1
        ],
        "baseColorTexture": {
          "index": 24,
          "texCoord": 0
        },
        "metallicFactor": 1,
        "metallicRoughnessTexture": {
          "index": 25,
          "texCoord": 0
        },
        "roughnessFactor": 1
      }
    }
  ],
  "meshes": [
    {
      "primitives": [
        {
          "attributes": {
            "NORMAL": 1,
            "POSITION": 0,
            "TANGENT": 2,
            "TEXCOORD_0": 3
          },
          "indices": 4,
          "material": 0,
          "mode": 4
        }
      ]
    },
    {
      "primitives": [
        {
          "attributes": {
            "NORMAL": 6,
            "POSITION": 5,
            "TANGENT": 7,
            "TEXCOORD_0": 8
          },
          "indices": 9,
          "material": 1,
          "mode": 4
        }
      ]
    },
    {
      "primitives": [
        {
          "attributes": {
            "NORMAL": 11,
            "POSITION": 10,
            "TANGENT": 12,
            "TEXCOORD_0": 13
          },
          "indices": 14,
          "material": 2,
          "mode": 4
        }
      ]
    },
    {
      "primitives": [
        {
          "attributes": {
            "NORMAL": 16,
            "POSITION": 15,
            "TANGENT": 17,
            "TEXCOORD_0": 18
          },
          "indices": 19,
          "material": 4,
          "mode": 4
        }
      ]
    },
    {
      "primitives": [
        {
          "attributes": {
            "NORMAL": 21,
            "POSITION": 20,
            "TANGENT": 22,
            "TEXCOORD_0": 23
          },
          "indices": 24,
          "material": 5,
          "mode": 4
        }
      ]
    },
    {
      "primitives": [
        {
          "attributes": {
            "NORMAL": 26,
            "POSITION": 25,
            "TANGENT": 27,
            "TEXCOORD_0": 28
          },
          "indices": 29,
          "material": 6,
          "mode": 4
        }
      ]
    },
    {
      "primitives": [
        {
          "attributes": {
            "NORMAL": 31,
            "POSITION": 30,
            "TANGENT": 32,
            "TEXCOORD_0": 33
          },
          "indices": 34,
          "material": 3,
          "mode": 4
        }
      ]
    }
  ],
  "nodes": [
    {
      "children": [
        1
      ],
      "name": "RootNode (gltf orientation matrix)",
      "rotation": [
        -0.70710678118654746,
        -0,
        -0,
        0.70710678118654757
      ]
    },
    {
      "children": [
        2
      ],
      "name": "RootNode (model correction matrix)"
    },
    {
      "children": [
        3,
        4,
        5,
        6,
        7,
        8,
        9
      ],
      "name": "Escritorio-pc-Teclado-Pantalla-mouse.obj.cleaner.materialmerger.gles"
    },
    {
      "mesh": 0,
      "name": ""
    },
    {
      "mesh": 1,
      "name": ""
    },
    {
      "mesh": 2,
      "name": ""
    },
    {
      "mesh": 3,
      "name": ""
    },
    {
      "mesh": 4,
      "name": ""
    },
    {
      "mesh": 5,
      "name": ""
    },
    {
      "mesh": 6,
      "name": ""
    }
  ],
  "samplers": [
    {
      "magFilter": 9729,
      "minFilter": 9987,
      "wrapS": 10497,
      "wrapT": 10497
    }
  ],
  "scene": 0,
  "scenes": [
    {
      "name": "OSG_Scene",
      "nodes": [
        0
      ]
    }
  ],
  "textures": [
    {
      "sampler": 0,
      "source": 0
    },
    {
      "sampler": 0,
      "source": 1
    },
    {
      "sampler": 0,
      "source": 2
    },
    {
      "sampler": 0,
      "source": 3
    },
    {
      "sampler": 0,
      "source": 4
    },
    {
      "sampler": 0,
      "source": 5
    },
    {
      "sampler": 0,
      "source": 6
    },
    {
      "sampler": 0,
      "source": 7
    },
    {
      "sampler": 0,
      "source": 8
    },
    {
      "sampler": 0,
      "source": 9
    },
    {
      "sampler": 0,
      "source": 10
    },
    {
      "sampler": 0,
      "source": 11
    },
    {
      "sampler": 0,
      "source": 12
    },
    {
      "sampler": 0,
      "source": 13
    },
    {
      "sampler": 0,
      "source": 14
    },
    {
      "sampler": 0,
      "source": 15
    },
    {
      "sampler": 0,
      "source": 16
    },
    {
      "sampler": 0,
      "source": 17
    },
    {
      "sampler": 0,
      "source": 18
    },
    {
      "sampler": 0,
      "source": 19
    },
    {
      "sampler": 0,
      "source": 20
    },
    {
      "sampler": 0,
      "source": 21
    },
    {
      "sampler": 0,
      "source": 22
    },
    {
      "sampler": 0,
      "source": 23
    },
    {
      "sampler": 0,
      "source": 24
    },
    {
      "sampler": 0,
      "source": 25
    },
    {
      "sampler": 0,
      "source": 26
    },
    {
      "sampler": 0,
      "source": 27
    }
  ]
}

